<?xml version="1.0" encoding="utf-8"?>
<!-- Generator: Adobe Illustrator 13.0.2, SVG Export Plug-In . SVG Version: 6.00 Build 14948)  -->
<!DOCTYPE svg PUBLIC "-//W3C//DTD SVG 1.1//EN" "http://www.w3.org/Graphics/SVG/1.1/DTD/svg11.dtd">
<svg version="1.1" id="Layer_1" xmlns="http://www.w3.org/2000/svg" xmlns:xlink="http://www.w3.org/1999/xlink" x="0px" y="0px"
	 width="740.838px" height="740.815px" viewBox="0 0 7500 7500" enable-background="new 0 0 1000 1000"
	 xml:space="preserve">
<g>
	<g>
		<path fill-rule="evenodd" clip-rule="evenodd" fill="#FFFFFF" d="M0.537,0c246.768,0,493.526,0,740.301,0
			c0,246.945,0,493.863,0,740.815c-246.945,0-493.864,0-740.815,0c0-246.417,0-492.862,0-739.271C-0.021,0.813-0.062,0.086,0.537,0z
			 M111.659,295.812c0.885,0.203,1.319-0.764,1.543,0c-0.983,1.971,0.623,5.184-1.029,7.202c3.96,5.109-1.219,13.466,1.029,20.064
			c0.605,0.081,1.46-0.088,1.543,0.515c1.126,6.01,0.802,14.338-1.543,18.52c1.82,0.903,2.65-1.728,3.086-0.514
			c-0.021,1.962-2.706,3.092-1.029,5.145c2.724,0.323,3.165-1.638,4.63-2.572c0.578,4.351-1.962,5.583-1.543,9.774
			c3.398,0.483,2.136-3.694,4.63-4.116c2.066,0.541-0.067,2.09,0.515,4.116c2.766,1.521,3.541,5.034,4.63,8.231
			c1.922,0.55,1.466-1.277,3.087-1.029c0,2.058,0,4.115,0,6.173c-1.051,1.221-2.036-0.707-3.087,0.514
			c4.985,1.494,3.921,5.305,2.572,10.29c1.919,0.547,0.814-1.93,2.572-1.544c-0.233,3.794,1.568,1.113,0,4.116
			c0.77,0.088,1.899-0.184,2.058,0.515c-0.129,3.387-0.156,6.672,2.058,7.717c1.318-1.255,1.939-3.205,3.087-4.631
			c1.163,7.839-4.328,17.862-2.058,25.209c2.348,0.29,3.204-0.912,5.659-0.515c1.152,2.278,2.439,4.42,4.116,6.173
			c2.473-1.615,7.358,0.402,8.231,0.515c0.064,2.122-0.895,3.222-0.515,5.659c-0.857,0-1.715,0-2.572,0
			c2.685,1.715,3.282,7.055,1.543,10.289c3.101-1.091,0.688,1.162,3.086,0c-0.708,0.663-0.509,2.234-0.514,3.602
			c3.091-0.871,5.125-0.295,6.173,2.058c-1.148,0.224-1.834,0.909-2.058,2.058c1.542-0.268,0.124,1.452,0.514,4.116
			c1.479-0.107,2.613,0.13,3.087,1.028c-2.771,5.301-1.293,10.289,0.514,12.347c-0.761-0.596-1.296-0.596-2.058,0
			c-3.208,10.468-9.543,19.711-14.405,28.81c-1.611,3.015-3.221,6.188-4.116,9.261c-1.717-1.46-1.781,2.027-3.601,2.058
			c-0.171,4.802-3.027,6.919-2.058,12.861c14.588,31.397,17.887,77.817,26.237,112.151c1.835-0.052,1.51-2.263,2.572-3.087
			c0.149,4.154,0.243,6.271,1.029,9.26c-0.912,0.117-2.577-0.518-2.058,1.029c-0.204,1.232,2.343-0.285,1.543,1.543
			c-3.277,6.998,8.606,12.701,9.26,16.978c1.82,0.903,2.65-1.729,3.086-0.515c-1.516,0.814-1.133,3.54,0,3.087
			c-1.46,0.337-4.588,0.568-4.115-0.515c-3.007,2.309-8.989,1.644-9.26,6.688c10.666,10.089,37.79,6.448,56.076,7.203
			c0.422,1.292,1.039,2.391,2.058,3.086c1.889-0.932,2.803,0.086,2.058,1.544c1.479-0.106,2.613,0.13,3.087,1.028
			c0.241,1.785-2.792,0.296-3.087,1.544c1.395,1.355,0.423,6.424,3.602,7.202c-1.418,0.742-1.951,2.367-1.029,4.116
			c-5.654,0.347-10.255,1.748-13.89,4.115c-0.304,2.19,0.37,3.402,0.515,5.145c9.124,7.636,28.946,7.012,41.67,6.688
			c5.218-3.014,14.117-2.346,18.006-6.688c0-1.372,0-2.744,0-4.115c-2.224-0.505-4.383-3.291-6.688-2.059
			c-2.711-5.42-7.157-4.657-8.746-10.289c-1.97,0.256-2.722-0.708-3.086-2.058c-8.857,0.767-7.57-5.078-12.861-6.688
			c-1.024-3.934-4.453-7.68-3.601-11.833c-2.006-1.08-3.628-2.545-3.087-6.173c-2.94-3.005-5.836-8.413-6.688-11.833
			c-9.396-23.478-18.613-53.76-19.549-82.827c-0.055-1.7-0.77-3.878-0.514-5.659c0.719-5.013-0.515-9.8-0.515-15.434
			c0-4.86,1.664-9.838,2.572-15.434c1.508-9.286,1.5-20.018,3.087-29.323c1.217-7.136,5.19-13.741,5.659-21.093
			c0.602-9.434-0.618-19.987,2.572-23.665c1.193,0.164,1.975-0.083,2.572-0.515c0.547-1.919-1.929-0.814-1.543-2.572
			c1.662-2.282,1.885-6.003,4.115-7.717c-1.345,0.145-2.213-0.188-2.058-1.543c4.271-6.658,6.263-19.712,8.231-30.354
			c5.686-10.262,12.352-19.544,17.491-30.353c3.58-0.232,3.076-2.041,7.202-1.029c-0.107-2.011,4.365-3.105,5.145-1.029
			c-1.595,10.513,6.776,11.059,11.318,15.434c0.203-0.885-0.764-1.319,0-1.544c0.82,1.409,1.92,2.539,2.572,4.116
			c1.641,0.44,1.591-0.81,2.572-1.029c2.367,3.723,6.632,10.99,10.804,15.948c0.745-0.626,0.689-2.055,2.058-2.058
			c-0.298,1.67,0.351,2.394,0.515,3.601c1.945-0.744,0.987,1.414,2.572,1.029c1.36-0.183,0.465-2.621,1.543-3.087
			c0.262,1.282-0.017,3.104,1.543,3.087c1.059-0.142,0.484-1.916,1.543-2.058c0.046,6.642,7.759,5.616,7.202,12.861
			c2.492-0.941,1.633,0.949,4.63,0.515c0.632-2.655,2.013-1.389,5.145-1.544c0.306-1.065-0.636-3.379,0.514-3.601
			c0.144,2.486,2.3,0.08,2.572-0.515c0,1.2,0,2.4,0,3.601c3.246-0.869,1.976-0.631,4.63,0.515c1.061-0.14,0.123-2.278,1.543-2.058
			c-0.478,2.021,1.789,1.298,1.029,3.602c2.289-0.784,2.069,2.055,3.601,0.514c-0.596,0.762-0.596,1.297,0,2.059
			c1.208,0.164,1.931,0.812,3.602,0.514c-0.928,2.961,1.854,1.413,2.058,2.059c-0.245,4.193-0.22,12.563,2.058,15.948
			c1.762-4.927,2.376-11,5.659-14.405c1.418,1.909,3.533,0.688,4.116-1.029c-1.099,4.186,2.429,3.744,1.543,7.717
			c3.838-0.791,4.82-4.439,7.202-6.688c1.868,0.821,4.236-2.268,6.173-3.087c-0.397,0.352-1.339,3.065,0.515,2.572
			c2.339-3.481,5.274-1.755,8.231-3.087c-1.222,0.994-1.222,2.608,0,3.602c2.676-0.845,4.516,0.673,6.174-1.029
			c-0.364,0.381-1.282,2.519,0.515,2.059c3.504-2.61,6.379-5.288,10.289-4.116c-0.57,2.72,1.818,0.072,0.515,2.058
			c1.172,0.707,1.934-1.326,2.058,0c-1.055,4.676,3.438,7.74,2.572,13.891c3.077,0.459,1.693,3.358,2.572,5.145
			c2.185,0.642,1.375-1.711,2.572-2.058c5.249,6.673,0.128,17.763-1.544,25.208c1.173,0.707,1.935-1.326,2.059,0
			c-0.588,6.142-1.071,13.419,0.514,15.948c-2.038,7.052,0.441,11.569-0.514,18.521c0.605,0.08,1.46-0.089,1.543,0.515
			c-2.157-0.189-0.367,1.676-0.515,2.572c1.173,0.706,1.934-1.326,2.058,0c-1.021,0.973-0.25,2.431,0,3.601
			c-2.642,0.718-1.124,2.559-2.058,5.145c0.904,0.296,3.022-0.621,3.087,0.515c-3.026,0.061-3.229,2.944-3.602,5.659
			c2.65,0.967,4.41-2.186,5.145,0c-1.628,3.21-0.534,8.748-0.514,11.832c-0.956,0.416-2.079,0.666-2.572,1.544
			c-0.064,2.122,0.894,3.222,0.514,5.659c2.943-0.598,0.912,0.061,3.087,1.028c0.092,2.321-3.188,1.271-2.572,4.116
			c0.518,1.026,2.275,0.812,2.058,2.572c-0.332,9.281-0.255,17.167,1.544,28.295c-0.515,0-1.029,0-1.544,0
			c5.097,26.536,2.596,49.064,1.544,68.937c1.517,2.451,0.933,8.225-0.515,10.289c0.006,0.68,0.901,0.471,1.029,1.029
			c-2.507,0.871,0.264,3.916-1.029,5.659c2.429,0.371,0.904-3.212,3.602-2.572c0.443,4.554,0.506,6.328,1.028,10.803
			c-2.959-1.043-5.493,1.32-7.202,5.145c0.901,0.143,2.566-1.448,3.087,0c-0.848,0.268-0.057,4.006-1.544,2.572
			c3.213,4.041,3.316,10.743,5.659,14.405c-0.091-2.252,1.738,0.481,2.058,1.029c-2.146,2.104-1.9,8.951,0.515,11.832
			c-1.64-0.439-1.952,0.448-2.572,1.029c0-1.029,0-2.059,0-3.087c-5.11,0.376-9.688,1.286-11.317,5.145
			c2.875,7.999,19.929,8.296,33.953,9.26c8.958,0.616,24.829-1.872,25.209-7.717c0.38-5.854-7.739-4.231-8.231-10.289
			c-1.819,0.27-3.201,0.619-4.116-1.028c0.578-0.053,0.802,0.747,1.029,0c-2.673-0.757-3.705-3.155-6.174-4.116
			c-2.014,0.075-2.055,1.754-4.115,0.515c-1.301,0.757-1.321,2.794-3.087,3.087c1.109-1.125-0.132-1.104-1.543-1.029
			c0.574-1.988-0.966-2.321-2.572-3.601c0.713-1.002,1.849-1.581,2.058-3.087c-4.645-3.929-5.019-10.151-7.717-13.891
			c0.968-8.248-2.555-12.808-3.087-18.521c-0.522-5.614-0.284-11.462,0-17.491c0.786-16.642,1.358-34.123,3.087-48.358
			c1.651-13.603,11.999-24.061,11.318-39.613c3.906,25.157-1.534,59.581,4.115,85.399c5.623,3.388,10.066,12.546,11.832,16.463
			c-1.538,0.806-2.959,2.299-2.572,3.601c-1.722-0.336-6.796,0.396-6.688,3.602c10.171,6.004,34.92,5.585,45.787,0.515
			c-0.162,0.695-0.732,0.982-0.515,2.058c3.258,0.172,4.655-1.518,5.145-4.116c-0.654-2.604-4.789-1.727-5.659-4.115
			c3.108-0.991,7.224,2.017,7.202-3.087c-0.023-5.52-12.652-7.944-18.006-6.173c-0.27,0.089-3.004,2.016-4.63,1.543
			c-0.8-0.744-1.378-1.709-2.572-2.058c0.495,1.852-2.312,1.003-2.059,0c1.793-1.033-0.043,0.228,1.029,0.515
			c1.282-1.785-1.366-3.196-2.572-4.116c1.541-0.338-0.492-1.1,0-2.058c-13.485-15.305-10.507-37.521-10.804-58.647
			c-0.101-7.206-1.272-14.384-1.028-21.607c0.518-15.325,7.822-30.264,9.26-45.786c2.247-24.259,7.999-44.604,8.746-67.908
			c0.577-0.053,0.801,0.747,1.028,0c-1.433-1.329,1.262-4.94,0.515-5.659c0.608,0.593,1.818,0.582,3.087,0.515
			c0.604-1.364-0.986-3.029,0-3.087c0.996,1.293,3.134-0.604,4.63-0.515c0.856-1.616-1.913-2.102-0.515-2.572
			c1.81,0.078,1.236,2.537,3.602,2.058c-0.339-2.428,0.92-2.889,1.029-3.601c0.889,0.412,1.278-0.192,3.601-1.029
			c-0.818-2.034,0.477-2.982-0.514-4.63c1.766,0.404,2.651-0.48,1.543-1.544c3.285,2.062,4.158-2.216,7.202-2.058
			c0.164-1.192-0.083-1.975-0.515-2.572c0.687,0,1.372,0,2.059,0c0.338-1.882-1.113-1.974-1.029-3.601
			c1.789-0.097,2.286-1.486,3.087-2.572c1.573-0.373,1.513,0.888,3.087,0.514c0.47-0.901,0.177-2.566,1.028-3.086
			c0.587,2.328,4.409,1.421,6.174,2.572c0.434-2.149-1-2.43-1.029-4.116c1.192,0.549,2.474,3.666,4.116,2.058
			c-0.919-0.217,2.199-0.206,1.543-1.543c2.476,1.812,4.514,4.061,8.231,4.63c0-1.372,0-2.743,0-4.115c0.686,0,1.372,0,2.058,0
			c0.06-1.827-0.372-4.145,1.543-4.116c1.365-0.164-0.48,2.883,1.544,2.059c2.122-0.107,1.788-2.67,3.087-3.602
			c1.232-0.204-0.285,2.344,1.543,1.543c0.211-2.018,2.699-1.759,2.058-4.63c0.956,1.002,2.079,0.354,2.572-0.515
			c-0.651,2.023,1.214,1.53,2.572,1.544c0.203-2.433-0.165-4.294-0.515-6.174c3.239-0.815,5.736,0.775,7.203-1.543
			c-0.236,1.607,1.099,1.645,2.572,1.543c1.043-0.328,0.338-2.405,1.543-2.572c0,2.401,0.623,4.179,3.087,4.116
			c0.464-3.05-2.076-5.794-0.515-8.231c1.012,2.933,1.588,6.3,3.602,8.231c1.384-1.252,0.021-4.107,0-5.659c0.514,0,1.028,0,1.543,0
			c0.856-1.616-1.913-2.103-0.515-2.572c0.455-0.083,3.239-2.231,3.602-4.116c0.117,0.912-0.519,2.576,1.028,2.059
			c2.645-0.16,0.741-4.388,1.544-5.145c1.776,1.311,1.462,4.711,1.543,7.717c2.969,0.739,1.812-2.647,4.116-2.572
			c-0.234-4.35,1.312-6.92,2.058-10.289c-0.094,1.122,0.421,1.637,1.543,1.543c2.43-1.181,0.593-3.042,3.602-2.058
			c0.817-2.541-1.505-3.489-0.515-4.63c1.626-0.254,0.191,2.553,2.058,2.058c1.397,0.368-0.368-2.426,1.029-2.058
			c3.449-0.877,2.831,2.313,5.659,2.058c-0.028-4.396,2.371-5.68,0.514-9.774c0.572-1.143,2.036-1.394,2.572-2.572
			c-0.255,1.97,0.709,2.722,2.059,3.087c1.396,0.368-0.368-2.426,1.028-2.058c0.749,2.167,2.06,3.771,4.63,4.116
			c-0.62-2.164,0.831-2.256,1.029-3.601c-1.302-1.442-1.918-3.569-2.572-5.659c1.695,1.386,1.793-0.655,2.058-1.029
			c0.846,1.042,1.721,2.052,3.602,2.058c0.353-1.616-0.06-2.102,0.515-2.572c0.448,0.751,0.408,1.992,2.058,1.543
			c3.343-2.887,0.011-6.404-2.572-8.746c0.734-0.123,0.868-0.847,1.543-1.029c-0.136,2.47,2.793,3.165,6.174,4.115
			c-0.405-3.223-0.911-3.178-2.572-5.145c1.64,0.439,1.952-0.448,2.572-1.029c-0.05-2.909-2.723-4.617-3.601-5.145
			c1.579-3.306-2.986-4.894-4.116-7.202c2.164,0.621,2.256-0.831,3.602-1.029c1.927-0.041,1.555,2.218,4.115,1.543
			c-0.235-6.452-6.444-6.932-7.202-12.861c1.028,0,2.058,0,3.087,0c0.259-1.616-1.213-2.102,0.515-2.572
			c-0.066,0.924,0.511,1.204,1.543,1.029c0.059-0.628,0.153-1.218,1.029-1.029c0.021-3.145-4.671-3.996-2.059-6.688
			c-2.167-2.071-3.561-5.456-2.572-9.26c0.598,0.432,1.379,0.678,2.572,0.514c-0.293-2.793-1.854-4.318-3.087-6.173
			c2.464,0.479,3.163-2.635,2.573-3.601c0.657,0.028,0.712,0.659,1.543,0.514c-0.52-2.749,1.332-3.126,2.058-4.63
			c-0.562-1.154-2.525-0.904-3.087-2.058c2.774-2.321-1.929-4.984-3.087-6.688c3.734,0.21,4.983,2.906,7.718,4.115
			c1.372-2.484,1.806,0.958,4.115,0.515c-2.314-8.317-9.365-11.899-13.376-18.521c3.358,1.457,2.285-1.921,6.688-0.514
			c0.695-2.582-1.765-2.009-2.059-3.601c4.098,0.71-2.77-5.414-2.058-6.174c0.695,0.162,0.982,0.732,2.058,0.515
			c-0.801-5.866,0.535-8.242-1.543-12.347c0.657,0.028,0.713,0.66,1.543,0.515c0.616-2.846-2.664-1.794-2.572-4.116
			c0.598,0.432,1.379,0.679,2.572,0.515c0.149-5.785-1.1-5.784-3.087-11.318c0.687,0,1.372,0,2.059,0
			c-1.933-2.938-1.263-5.292-3.087-8.231c2.04,0.325,1.474-1.956,3.602-1.543c-1.821-2.746,1.104-2.196,0.514-6.173
			c-3.202-1.256-6.566-2.351-8.231-5.145c1.372,0,2.744,0,4.116,0c0.203-0.885-0.764-1.319,0-1.543
			c0.945,0.912,4.096-0.337,4.115-2.058c-1.904-1.298-3.675-1.38-2.572-4.63c-1.575-0.654-3.729-0.729-5.145-1.543
			c1.878,0.334,2.74-0.347,3.602-1.029c-0.36-1.583-0.36-0.989,0-2.572c-0.788-1.196-4.429-1.37-3.087-3.087
			c0.885,0.755-0.668,1.086,1.543,0.515c-0.452-2.815-5.926-3.321-5.145-5.659c2.191,0.038,3.599,0.861,6.174,0.515
			c0.608-3.009-2.087-2.715-3.087-4.116c3.348-0.696-1.573-3.585-0.515-3.601c2.04-0.325,1.474,1.956,3.602,1.543
			c-0.022-1.946,1.267-1.21,4.63-1.543c-0.198-4.774-6.871-3.075-6.174-8.746c2.961-0.862,0.729-2.053,3.087-4.116
			c-1.312-0.573-1.49-2.282-2.572-3.087c2.396-3.464,2.171-12.976-1.543-16.462c0.695,0.162,0.982,0.732,2.058,0.515
			c-0.279-3.665-3.689-4.199-4.63-7.203c0.01-1.597,2.333-2.236,1.028-3.601c0.658,0.028,0.713,0.659,1.544,0.515
			c0.271-2.5-2.188-2.271-2.058-4.63c0.38-0.82,2.518,0.118,2.058-1.543c-0.766-2.741-0.718-3.987-2.572-6.173
			c1.62-0.249,1.165,1.579,3.087,1.029c-0.365-1.908,0.879-2.208,0.514-4.116c-2.379-2.765-7.322-2.966-6.688-8.746
			c-0.605-0.081-1.46,0.088-1.543-0.515c0.029-2.587,2.77-4.271,3.601-6.688c1.196-3.479-0.146-7.731,1.029-11.833
			c0.616-2.154,2.701-3.684,3.087-5.659c1.828-9.367,4.987-15.24,6.174-23.665c0.514,0,1.028,0,1.543,0
			c-0.041-8.868-0.561-11.952-1.543-19.549c-1.173,0.144-1.935-0.124-2.059-1.029c2.333-0.138-0.788-2.232-1.543-3.086
			c-3.432-3.881-7.277-12.745-13.376-10.289c-1.366,10.336,1.197,27.128-5.145,35.497c-0.038,0.896,0.114,1.6,0.515,2.058
			c-2.157-1.581-0.324,2.818-2.059,1.029c-0.439,1.64,0.448,1.953,1.029,2.572c-3.227,2.311-4.291,7.025-7.202,10.804
			c-3.527-1.96-10.264-0.712-13.376-3.087c-3.517,2.485-10.083,1.921-14.404,3.601c-7.268-8.203-13.644-14.378-20.578-23.15
			c-2.025-6.549-1.526-15.623-3.087-22.636c-3.653-1.519-8.747,1.011-10.804,4.116c2.238,2.621-1.225,2.959-2.058,6.173
			c-1.759,6.78-0.753,14.487-1.029,21.093c3.974,11.836,11.462,23.135,20.063,31.896c-3.312,3.858-0.778,11.499-5.658,14.404
			c1.107,1.55,3.166,0.792,4.63,0c0.007,2.736,1.644,3.845,2.058,6.174c-3.045,3.3-3.812,8.878-6.688,12.347
			c0.922,4.174-2.695,8.021-3.602,12.347c-0.218,1.038,0.663,2.471,0.515,3.601c-0.476,3.601-3.771,8.187-6.174,9.774
			c0.739,2.797-1.615,2.501-1.543,4.63c0.197,2.031,2.195,2.263,3.087,3.601c-2.312,2.146-3.758,5.16-4.116,9.26
			c2.036,0.665,1.051-1.693,3.087-1.029c-0.93,3.876-1.178,8.213-1.029,11.833c-7.442,5.761-9.378,17.03-11.832,27.78
			c2.079,0.494,4.029,1.116,5.145,2.572c-2.367,5.522-4.755,11.022-6.174,17.492c-6.354-1.707-12.702-3.417-14.919-9.26
			c-4.824-0.492-6.321-4.31-11.833-4.116c-4.461-5.141-16.203-3.003-22.636-6.173c0.48,0.314,1.898,1.197,1.544-0.515
			c-4.012-0.9-4.114-3.152-7.203-2.058c-2.358-5.405-18.47-6.601-22.121,0c-2.594-1.445-4.928,1.931-7.717,0.514
			c-0.586,2.816,2.194,2.265,2.572,4.116c-1.938-0.052-2.343,0.814-3.087,0c0.535-4.035-1.46-1.549-0.515-4.63
			c-2.171-1.307-6.31-2.709-7.717,0c-2.931-3.077-6.127-4.963-9.774-6.173c1.137-0.064,0.219-2.183,0.515-3.087
			c-5.844-2.954-13.766-13.677-17.491-2.058c4.239-0.639,4.912,2.29,5.659,5.145c-1.232-0.312-2.348-0.74-4.116-0.515
			c-8.834,4.713-17.891,9.203-32.411,8.231c0.14,3.57-5.36,1.499-8.231,2.058c-3.825-3.206-13.315-0.747-12.862-8.231
			c-5.526-5.574-16.647-2.854-23.15-4.63c-0.589,1.618,0.808,1.25,1.029,2.058c-3.718,0.599-6.164,0.009-9.26,0.515
			c-2.955-5.083-12.651-3.999-15.948,0c0.353,1.706,3.924,0.191,4.116,2.058c-2.537,2.415-7.269,1.187-9.26-1.029
			c0.992,1,3.149,0.538,2.572-1.543c-9.73-1.033-9.816,1.987-18.521,0.515c-2.797,6.026-12.725-3.093-14.405,4.63
			c2.343,0.603,4.792-1.347,5.659-0.514c-2,3.414-3.872,1.19-8.746,2.058c-0.117-0.912,0.519-2.576-1.029-2.058
			c-2.946,0.913-1.049,3.966,0,5.659c-0.565-0.965-4.082,1.06-5.145-0.514c-1.272-1.333,1.11-1.913,1.029-3.601
			c-1.592-0.637-3.282-1.177-4.116-2.572c-1.595-0.052-2.458,0.629-3.601,1.029c0.856-1.022-0.047-0.654,0-2.058
			c-4.157,0.892-9.275,0.611-9.775,2.572c-0.416-0.956-0.665-2.078-1.543-2.572c-2.551-0.057-2.527,0.505-4.63,0
			c-2.562,4.143-7.556,6.158-13.891,5.145c0.449,1.649-0.792,1.609-1.543,2.058c-4.578-2.621-6.842,3.214-13.376,1.029
			c0-0.857,0-1.715,0-2.572c-3.702-2.128-10.708-0.953-12.347-5.145c-6.354,0.892-8.908-2.574-16.463-2.058
			c0.229,2.788,2.012,2.026,1.029,5.145c2.452,1.164,2.274-0.049,2.572,2.572c-4.204-1.401-8.387-0.752-12.862-1.029
			c-0.041,2.099,2.027,2.089,2.058,4.116c-0.579-0.322-4.389-0.58-4.116,1.543c2.004,0.131,0.845,0.8,2.058,3.087
			c-0.38,0.82-2.518-0.118-2.058,1.543c-0.164,1.365,2.882-0.481,2.058,1.543c-0.064,1.136-2.182,0.219-3.086,0.515
			c-2.411,3.42-7.31,4.351-9.26,8.231c-2.795-0.565-2.667,1.792-5.659,1.029c0.489,3.626,3.96,4.271,6.688,5.659
			c-1.337-0.308-1.851,0.207-1.543,1.543c0.677,1.381,3.089,1.026,3.087,3.087c-0.592,1.466-1.4,2.715-2.058,4.116
			c-4.052-0.079-5.565,1.455-7.202,0c-0.962,4.182-5.929,4.36-7.717,7.717c-5.942,0.653-6.116,8.087-9.26,8.746
			c-0.746,5.084-5.567,6.093-5.659,11.833c3.882-2.977,4.333-9.385,9.774-10.804c-1.199,1.9-2.139,5.591-3.601,5.659
			C113.971,276.175,112.966,287.514,111.659,295.812z"/>
		<path fill-rule="evenodd" clip-rule="evenodd" d="M115.775,270.089c1.462-0.068,2.402-3.759,3.601-5.659
			c-5.441,1.418-5.892,7.827-9.774,10.804c0.091-5.739,4.913-6.749,5.659-11.833c3.144-0.658,3.318-8.093,9.26-8.746
			c1.788-3.357,6.754-3.535,7.717-7.717c1.637,1.455,3.15-0.079,7.202,0c0.658-1.401,1.466-2.65,2.058-4.116
			c0.002-2.061-2.41-1.706-3.087-3.087c-0.308-1.337,0.207-1.851,1.543-1.543c-2.728-1.387-6.199-2.032-6.688-5.659
			c2.992,0.762,2.864-1.595,5.659-1.029c1.95-3.88,6.85-4.811,9.26-8.231c0.904-0.296,3.022,0.622,3.086-0.515
			c0.824-2.024-2.222-0.179-2.058-1.543c-0.46-1.661,1.678-0.723,2.058-1.543c-1.213-2.287-0.053-2.956-2.058-3.087
			c-0.273-2.123,3.537-1.865,4.116-1.543c-0.031-2.027-2.099-2.017-2.058-4.116c4.475,0.277,8.658-0.372,12.862,1.029
			c-0.298-2.622-0.12-1.408-2.572-2.572c0.982-3.118-0.801-2.357-1.029-5.145c7.555-0.517,10.109,2.95,16.463,2.058
			c1.639,4.191,8.645,3.017,12.347,5.145c0,0.857,0,1.715,0,2.572c6.534,2.186,8.798-3.65,13.376-1.029
			c0.751-0.449,1.992-0.409,1.543-2.058c6.335,1.013,11.328-1.002,13.891-5.145c2.103,0.505,2.079-0.057,4.63,0
			c0.878,0.494,1.128,1.616,1.543,2.572c0.5-1.961,5.618-1.681,9.775-2.572c-0.047,1.404,0.856,1.036,0,2.058
			c1.143-0.4,2.006-1.081,3.601-1.029c0.833,1.396,2.523,1.935,4.116,2.572c0.081,1.688-2.301,2.268-1.029,3.601
			c1.062,1.574,4.579-0.451,5.145,0.514c-1.049-1.692-2.946-4.746,0-5.659c1.548-0.519,0.912,1.146,1.029,2.058
			c4.874-0.868,6.746,1.356,8.746-2.058c-0.867-0.833-3.316,1.117-5.659,0.514c1.68-7.723,11.608,1.396,14.405-4.63
			c8.704,1.472,8.79-1.548,18.521-0.515c0.577,2.082-1.58,2.544-2.572,1.543c1.991,2.215,6.724,3.444,9.26,1.029
			c-0.192-1.866-3.763-0.352-4.116-2.058c3.297-3.999,12.994-5.083,15.948,0c3.096-0.505,5.542,0.084,9.26-0.515
			c-0.221-0.808-1.618-0.439-1.029-2.058c6.503,1.776,17.624-0.944,23.15,4.63c-0.454,7.484,9.037,5.025,12.862,8.231
			c2.871-0.559,8.371,1.512,8.231-2.058c14.52,0.972,23.577-3.518,32.411-8.231c1.769-0.225,2.884,0.203,4.116,0.515
			c-0.747-2.854-1.42-5.783-5.659-5.145c3.726-11.619,11.647-0.896,17.491,2.058c-0.296,0.904,0.622,3.022-0.515,3.087
			c3.647,1.21,6.844,3.097,9.774,6.173c1.407-2.709,5.546-1.307,7.717,0c-0.945,3.081,1.05,0.595,0.515,4.63
			c0.744,0.814,1.149-0.052,3.087,0c-0.378-1.851-3.158-1.3-2.572-4.116c2.789,1.417,5.123-1.959,7.717-0.514
			c3.651-6.601,19.763-5.405,22.121,0c3.089-1.095,3.191,1.157,7.203,2.058c0.354,1.711-1.063,0.829-1.544,0.515
			c6.433,3.17,18.175,1.032,22.636,6.173c5.512-0.194,7.009,3.624,11.833,4.116c2.217,5.843,8.565,7.554,14.919,9.26
			c1.419-6.47,3.807-11.97,6.174-17.492c-1.115-1.457-3.065-2.079-5.145-2.572c2.454-10.75,4.39-22.019,11.832-27.78
			c-0.148-3.619,0.1-7.956,1.029-11.833c-2.036-0.665-1.051,1.693-3.087,1.029c0.358-4.101,1.804-7.114,4.116-9.26
			c-0.892-1.338-2.89-1.57-3.087-3.601c-0.072-2.129,2.282-1.833,1.543-4.63c2.403-1.588,5.698-6.173,6.174-9.774
			c0.148-1.13-0.732-2.563-0.515-3.601c0.906-4.326,4.523-8.173,3.602-12.347c2.876-3.468,3.643-9.047,6.688-12.347
			c-0.414-2.329-2.051-3.438-2.058-6.174c-1.464,0.792-3.522,1.55-4.63,0c4.88-2.906,2.346-10.546,5.658-14.404
			c-8.602-8.761-16.09-20.061-20.063-31.896c0.276-6.605-0.729-14.312,1.029-21.093c0.833-3.214,4.296-3.553,2.058-6.173
			c2.057-3.105,7.15-5.635,10.804-4.116c1.561,7.013,1.062,16.087,3.087,22.636c6.935,8.772,13.311,14.947,20.578,23.15
			c4.321-1.68,10.888-1.116,14.404-3.601c3.112,2.375,9.849,1.126,13.376,3.087c2.911-3.778,3.976-8.493,7.202-10.804
			c-0.581-0.62-1.469-0.933-1.029-2.572c1.734,1.789-0.099-2.61,2.059-1.029c-0.4-0.458-0.553-1.162-0.515-2.058
			c6.342-8.369,3.778-25.161,5.145-35.497c6.099-2.456,9.944,6.408,13.376,10.289c0.755,0.854,3.876,2.948,1.543,3.086
			c0.124,0.905,0.886,1.173,2.059,1.029c0.982,7.598,1.502,10.681,1.543,19.549c-0.515,0-1.029,0-1.543,0
			c-1.187,8.425-4.346,14.298-6.174,23.665c-0.386,1.975-2.471,3.505-3.087,5.659c-1.175,4.102,0.167,8.354-1.029,11.833
			c-0.831,2.417-3.571,4.101-3.601,6.688c0.083,0.603,0.938,0.434,1.543,0.515c-0.635,5.78,4.309,5.981,6.688,8.746
			c0.365,1.908-0.879,2.208-0.514,4.116c-1.922,0.55-1.467-1.277-3.087-1.029c1.854,2.187,1.807,3.432,2.572,6.173
			c0.46,1.661-1.678,0.723-2.058,1.543c-0.13,2.359,2.328,2.131,2.058,4.63c-0.831,0.145-0.886-0.486-1.544-0.515
			c1.305,1.365-1.019,2.004-1.028,3.601c0.94,3.004,4.351,3.538,4.63,7.203c-1.075,0.218-1.362-0.353-2.058-0.515
			c3.714,3.487,3.939,12.999,1.543,16.462c1.082,0.805,1.26,2.514,2.572,3.087c-2.358,2.063-0.126,3.253-3.087,4.116
			c-0.697,5.671,5.976,3.971,6.174,8.746c-3.363,0.333-4.652-0.402-4.63,1.543c-2.128,0.413-1.562-1.869-3.602-1.543
			c-1.059,0.016,3.862,2.905,0.515,3.601c1,1.4,3.695,1.106,3.087,4.116c-2.575,0.346-3.982-0.477-6.174-0.515
			c-0.781,2.338,4.692,2.844,5.145,5.659c-2.211,0.571-0.658,0.241-1.543-0.515c-1.342,1.717,2.299,1.891,3.087,3.087
			c-0.36,1.583-0.36,0.989,0,2.572c-0.861,0.682-1.724,1.363-3.602,1.029c1.416,0.814,3.569,0.889,5.145,1.543
			c-1.103,3.25,0.668,3.332,2.572,4.63c-0.02,1.721-3.17,2.969-4.115,2.058c-0.764,0.225,0.203,0.658,0,1.543
			c-1.372,0-2.744,0-4.116,0c1.665,2.793,5.029,3.888,8.231,5.145c0.59,3.978-2.335,3.427-0.514,6.173
			c-2.128-0.413-1.562,1.869-3.602,1.543c1.824,2.939,1.154,5.292,3.087,8.231c-0.687,0-1.372,0-2.059,0
			c1.987,5.534,3.236,5.534,3.087,11.318c-1.193,0.164-1.975-0.083-2.572-0.515c-0.092,2.321,3.188,1.27,2.572,4.116
			c-0.83,0.145-0.886-0.486-1.543-0.515c2.078,4.105,0.742,6.481,1.543,12.347c-1.075,0.218-1.362-0.353-2.058-0.515
			c-0.712,0.76,6.155,6.884,2.058,6.174c0.294,1.592,2.754,1.019,2.059,3.601c-4.403-1.407-3.33,1.971-6.688,0.514
			c4.011,6.622,11.062,10.203,13.376,18.521c-2.31,0.443-2.743-2.999-4.115-0.515c-2.734-1.209-3.983-3.905-7.718-4.115
			c1.158,1.704,5.861,4.367,3.087,6.688c0.562,1.154,2.525,0.904,3.087,2.058c-0.726,1.503-2.577,1.881-2.058,4.63
			c-0.831,0.145-0.886-0.486-1.543-0.514c0.59,0.966-0.109,4.08-2.573,3.601c1.232,1.855,2.794,3.38,3.087,6.173
			c-1.193,0.164-1.975-0.083-2.572-0.514c-0.988,3.804,0.405,7.188,2.572,9.26c-2.612,2.692,2.08,3.543,2.059,6.688
			c-0.876-0.189-0.971,0.401-1.029,1.029c-1.032,0.175-1.609-0.105-1.543-1.029c-1.728,0.47-0.256,0.957-0.515,2.572
			c-1.029,0-2.059,0-3.087,0c0.758,5.93,6.967,6.409,7.202,12.861c-2.561,0.675-2.188-1.583-4.115-1.543
			c-1.346,0.198-1.438,1.649-3.602,1.029c1.13,2.308,5.695,3.896,4.116,7.202c0.878,0.527,3.551,2.235,3.601,5.145
			c-0.62,0.581-0.933,1.468-2.572,1.029c1.661,1.967,2.167,1.922,2.572,5.145c-3.381-0.951-6.31-1.646-6.174-4.115
			c-0.675,0.182-0.809,0.906-1.543,1.029c2.583,2.342,5.915,5.859,2.572,8.746c-1.649,0.449-1.609-0.792-2.058-1.543
			c-0.574,0.47-0.162,0.957-0.515,2.572c-1.881-0.005-2.756-1.016-3.602-2.058c-0.265,0.374-0.362,2.415-2.058,1.029
			c0.654,2.09,1.271,4.217,2.572,5.659c-0.198,1.345-1.649,1.437-1.029,3.601c-2.57-0.344-3.881-1.949-4.63-4.116
			c-1.396-0.368,0.368,2.426-1.028,2.058c-1.35-0.365-2.313-1.117-2.059-3.087c-0.536,1.179-2,1.43-2.572,2.572
			c1.857,4.095-0.542,5.378-0.514,9.774c-2.828,0.255-2.21-2.935-5.659-2.058c-1.397-0.368,0.368,2.426-1.029,2.058
			c-1.866,0.495-0.432-2.312-2.058-2.058c-0.99,1.141,1.332,2.09,0.515,4.63c-3.009-0.984-1.172,0.877-3.602,2.058
			c-1.122,0.094-1.637-0.421-1.543-1.543c-0.746,3.369-2.292,5.939-2.058,10.289c-2.304-0.075-1.147,3.312-4.116,2.572
			c-0.081-3.006,0.233-6.406-1.543-7.717c-0.803,0.757,1.101,4.984-1.544,5.145c-1.547,0.518-0.911-1.146-1.028-2.059
			c-0.362,1.885-3.146,4.033-3.602,4.116c-1.398,0.47,1.371,0.956,0.515,2.572c-0.515,0-1.029,0-1.543,0
			c0.021,1.552,1.384,4.407,0,5.659c-2.014-1.932-2.59-5.299-3.602-8.231c-1.562,2.438,0.979,5.182,0.515,8.231
			c-2.464,0.062-3.087-1.715-3.087-4.116c-1.205,0.167-0.5,2.244-1.543,2.572c-1.474,0.102-2.809,0.064-2.572-1.543
			c-1.467,2.318-3.964,0.728-7.203,1.543c0.35,1.88,0.718,3.741,0.515,6.174c-1.358-0.014-3.224,0.479-2.572-1.544
			c-0.493,0.868-1.616,1.517-2.572,0.515c0.642,2.871-1.847,2.612-2.058,4.63c-1.828,0.801-0.311-1.747-1.543-1.543
			c-1.299,0.932-0.965,3.494-3.087,3.602c-2.024,0.824-0.179-2.223-1.544-2.059c-1.915-0.028-1.483,2.289-1.543,4.116
			c-0.686,0-1.372,0-2.058,0c0,1.372,0,2.743,0,4.115c-3.718-0.569-5.756-2.818-8.231-4.63c0.656,1.337-2.462,1.326-1.543,1.543
			c-1.643,1.608-2.924-1.509-4.116-2.058c0.029,1.687,1.463,1.967,1.029,4.116c-1.765-1.151-5.587-0.244-6.174-2.572
			c-0.852,0.52-0.559,2.185-1.028,3.086c-1.574,0.374-1.514-0.887-3.087-0.514c-0.801,1.086-1.298,2.476-3.087,2.572
			c-0.084,1.627,1.367,1.719,1.029,3.601c-0.687,0-1.372,0-2.059,0c0.432,0.598,0.679,1.38,0.515,2.572
			c-3.044-0.158-3.917,4.119-7.202,2.058c1.108,1.063,0.223,1.948-1.543,1.544c0.99,1.647-0.305,2.596,0.514,4.63
			c-2.322,0.837-2.712,1.441-3.601,1.029c-0.109,0.712-1.368,1.173-1.029,3.601c-2.365,0.479-1.792-1.979-3.602-2.058
			c-1.398,0.471,1.371,0.956,0.515,2.572c-1.496-0.09-3.634,1.808-4.63,0.515c-0.986,0.058,0.604,1.723,0,3.087
			c-1.269,0.067-2.479,0.078-3.087-0.515c0.747,0.719-1.947,4.33-0.515,5.659c-0.228,0.747-0.451-0.053-1.028,0
			c-0.747,23.305-6.499,43.649-8.746,67.908c-1.438,15.522-8.742,30.461-9.26,45.786c-0.244,7.224,0.928,14.401,1.028,21.607
			c0.297,21.127-2.682,43.343,10.804,58.647c-0.492,0.958,1.541,1.72,0,2.058c1.206,0.92,3.854,2.331,2.572,4.116
			c-1.072-0.287,0.764-1.548-1.029-0.515c-0.253,1.003,2.554,1.852,2.059,0c1.194,0.349,1.772,1.313,2.572,2.058
			c1.626,0.473,4.36-1.454,4.63-1.543c5.354-1.771,17.982,0.653,18.006,6.173c0.021,5.104-4.094,2.096-7.202,3.087
			c0.87,2.389,5.005,1.512,5.659,4.115c-0.489,2.599-1.887,4.288-5.145,4.116c-0.218-1.075,0.353-1.362,0.515-2.058
			c-10.867,5.07-35.616,5.489-45.787-0.515c-0.108-3.206,4.966-3.938,6.688-3.602c-0.387-1.302,1.034-2.795,2.572-3.601
			c-1.766-3.917-6.209-13.075-11.832-16.463c-5.649-25.818-0.209-60.242-4.115-85.399c0.681,15.553-9.667,26.011-11.318,39.613
			c-1.729,14.235-2.301,31.717-3.087,48.358c-0.284,6.029-0.522,11.877,0,17.491c0.532,5.713,4.055,10.272,3.087,18.521
			c2.698,3.739,3.072,9.962,7.717,13.891c-0.209,1.506-1.345,2.085-2.058,3.087c1.606,1.279,3.146,1.612,2.572,3.601
			c1.411-0.075,2.652-0.096,1.543,1.029c1.766-0.293,1.786-2.33,3.087-3.087c2.061,1.239,2.102-0.439,4.115-0.515
			c2.469,0.961,3.501,3.359,6.174,4.116c-0.228,0.747-0.451-0.053-1.029,0c0.915,1.647,2.297,1.298,4.116,1.028
			c0.492,6.058,8.611,4.436,8.231,10.289c-0.38,5.845-16.251,8.333-25.209,7.717c-14.024-0.964-31.078-1.261-33.953-9.26
			c1.629-3.858,6.207-4.769,11.317-5.145c0,1.028,0,2.058,0,3.087c0.62-0.581,0.933-1.469,2.572-1.029
			c-2.415-2.881-2.66-9.728-0.515-11.832c-0.319-0.548-2.148-3.281-2.058-1.029c-2.343-3.662-2.446-10.364-5.659-14.405
			c1.487,1.434,0.696-2.305,1.544-2.572c-0.521-1.448-2.186,0.143-3.087,0c1.709-3.824,4.243-6.188,7.202-5.145
			c-0.522-4.475-0.585-6.249-1.028-10.803c-2.697-0.64-1.173,2.943-3.602,2.572c1.293-1.743-1.478-4.788,1.029-5.659
			c-0.128-0.559-1.023-0.35-1.029-1.029c1.447-2.064,2.031-7.838,0.515-10.289c1.052-19.872,3.553-42.4-1.544-68.937
			c0.515,0,1.029,0,1.544,0c-1.799-11.128-1.876-19.014-1.544-28.295c0.218-1.761-1.54-1.546-2.058-2.572
			c-0.616-2.846,2.664-1.795,2.572-4.116c-2.175-0.968-0.144-1.626-3.087-1.028c0.38-2.438-0.578-3.537-0.514-5.659
			c0.493-0.878,1.616-1.128,2.572-1.544c-0.021-3.084-1.114-8.622,0.514-11.832c-0.734-2.186-2.494,0.967-5.145,0
			c0.373-2.715,0.575-5.599,3.602-5.659c-0.064-1.136-2.183-0.219-3.087-0.515c0.934-2.586-0.584-4.427,2.058-5.145
			c-0.25-1.17-1.021-2.628,0-3.601c-0.124-1.326-0.885,0.706-2.058,0c0.147-0.896-1.643-2.762,0.515-2.572
			c-0.083-0.604-0.938-0.435-1.543-0.515c0.955-6.951-1.524-11.469,0.514-18.521c-1.585-2.529-1.102-9.807-0.514-15.948
			c-0.124-1.326-0.886,0.707-2.059,0c1.672-7.445,6.793-18.535,1.544-25.208c-1.197,0.347-0.388,2.699-2.572,2.058
			c-0.879-1.786,0.505-4.686-2.572-5.145c0.866-6.15-3.627-9.215-2.572-13.891c-0.124-1.326-0.886,0.707-2.058,0
			c1.304-1.985-1.085,0.662-0.515-2.058c-3.91-1.172-6.785,1.506-10.289,4.116c-1.797,0.46-0.879-1.678-0.515-2.059
			c-1.658,1.702-3.498,0.185-6.174,1.029c-1.222-0.993-1.222-2.607,0-3.602c-2.957,1.332-5.892-0.395-8.231,3.087
			c-1.854,0.493-0.912-2.221-0.515-2.572c-1.937,0.819-4.306,3.908-6.173,3.087c-2.382,2.248-3.364,5.896-7.202,6.688
			c0.886-3.973-2.643-3.531-1.543-7.717c-0.583,1.718-2.697,2.938-4.116,1.029c-3.283,3.405-3.897,9.479-5.659,14.405
			c-2.278-3.385-2.303-11.755-2.058-15.948c-0.204-0.646-2.986,0.902-2.058-2.059c-1.67,0.299-2.394-0.35-3.602-0.514
			c-0.596-0.762-0.596-1.297,0-2.059c-1.532,1.541-1.312-1.298-3.601-0.514c0.76-2.304-1.506-1.58-1.029-3.602
			c-1.421-0.221-0.483,1.918-1.543,2.058c-2.655-1.146-1.384-1.384-4.63-0.515c0-1.2,0-2.4,0-3.601
			c-0.272,0.595-2.429,3.001-2.572,0.515c-1.15,0.222-0.208,2.535-0.514,3.601c-3.132,0.155-4.513-1.111-5.145,1.544
			c-2.998,0.435-2.139-1.456-4.63-0.515c0.557-7.245-7.156-6.22-7.202-12.861c-1.059,0.142-0.484,1.916-1.543,2.058
			c-1.56,0.017-1.282-1.805-1.543-3.087c-1.078,0.466-0.183,2.904-1.543,3.087c-1.585,0.385-0.627-1.773-2.572-1.029
			c-0.164-1.207-0.813-1.931-0.515-3.601c-1.369,0.003-1.312,1.432-2.058,2.058c-4.172-4.958-8.437-12.226-10.804-15.948
			c-0.981,0.22-0.931,1.47-2.572,1.029c-0.652-1.577-1.752-2.707-2.572-4.116c-0.764,0.225,0.203,0.659,0,1.544
			c-4.542-4.375-12.914-4.921-11.318-15.434c-0.779-2.076-5.251-0.981-5.145,1.029c-4.126-1.012-3.622,0.796-7.202,1.029
			c-5.14,10.809-11.805,20.091-17.491,30.353c-1.969,10.642-3.96,23.695-8.231,30.354c-0.155,1.355,0.712,1.688,2.058,1.543
			c-2.23,1.714-2.453,5.435-4.115,7.717c-0.386,1.758,2.09,0.653,1.543,2.572c-0.597,0.432-1.379,0.679-2.572,0.515
			c-3.19,3.678-1.971,14.231-2.572,23.665c-0.469,7.352-4.442,13.957-5.659,21.093c-1.587,9.306-1.579,20.037-3.087,29.323
			c-0.909,5.596-2.572,10.573-2.572,15.434c0,5.634,1.233,10.421,0.515,15.434c-0.255,1.781,0.459,3.959,0.514,5.659
			c0.936,29.067,10.153,59.35,19.549,82.827c0.852,3.42,3.748,8.828,6.688,11.833c-0.542,3.628,1.081,5.093,3.087,6.173
			c-0.852,4.153,2.577,7.899,3.601,11.833c5.291,1.609,4.004,7.454,12.861,6.688c0.365,1.35,1.117,2.313,3.086,2.058
			c1.589,5.632,6.035,4.869,8.746,10.289c2.305-1.232,4.464,1.554,6.688,2.059c0,1.371,0,2.743,0,4.115
			c-3.89,4.342-12.789,3.674-18.006,6.688c-12.725,0.324-32.546,0.948-41.67-6.688c-0.145-1.742-0.819-2.954-0.515-5.145
			c3.635-2.367,8.236-3.769,13.89-4.115c-0.922-1.749-0.389-3.374,1.029-4.116c-3.179-0.778-2.207-5.847-3.602-7.202
			c0.295-1.248,3.328,0.241,3.087-1.544c-0.474-0.898-1.608-1.135-3.087-1.028c0.745-1.458-0.168-2.476-2.058-1.544
			c-1.019-0.695-1.636-1.794-2.058-3.086c-18.286-0.755-45.41,2.886-56.076-7.203c0.271-5.044,6.253-4.379,9.26-6.688
			c-0.473,1.083,2.655,0.852,4.115,0.515c-1.133,0.453-1.516-2.272,0-3.087c-0.436-1.214-1.267,1.418-3.086,0.515
			c-0.654-4.276-12.537-9.979-9.26-16.978c0.8-1.828-1.748-0.311-1.543-1.543c-0.519-1.547,1.146-0.912,2.058-1.029
			c-0.787-2.988-0.88-5.105-1.029-9.26c-1.062,0.824-0.737,3.035-2.572,3.087c-8.35-34.334-11.649-80.754-26.237-112.151
			c-0.969-5.942,1.887-8.06,2.058-12.861c1.82-0.03,1.884-3.518,3.601-2.058c0.895-3.072,2.505-6.246,4.116-9.261
			c4.862-9.099,11.197-18.342,14.405-28.81c0.761-0.596,1.296-0.596,2.058,0c-1.808-2.058-3.286-7.046-0.514-12.347
			c-0.474-0.898-1.608-1.136-3.087-1.028c-0.39-2.664,1.028-4.384-0.514-4.116c0.224-1.148,0.909-1.834,2.058-2.058
			c-1.049-2.353-3.082-2.929-6.173-2.058c0.005-1.367-0.194-2.938,0.514-3.602c-2.398,1.162,0.015-1.091-3.086,0
			c1.738-3.234,1.141-8.574-1.543-10.289c0.857,0,1.715,0,2.572,0c-0.38-2.438,0.579-3.537,0.515-5.659
			c-0.874-0.112-5.758-2.13-8.231-0.515c-1.677-1.753-2.964-3.895-4.116-6.173c-2.455-0.397-3.311,0.805-5.659,0.515
			c-2.27-7.347,3.221-17.37,2.058-25.209c-1.147,1.426-1.769,3.376-3.087,4.631c-2.214-1.045-2.187-4.33-2.058-7.717
			c-0.159-0.698-1.288-0.427-2.058-0.515c1.568-3.003-0.233-0.322,0-4.116c-1.758-0.386-0.653,2.091-2.572,1.544
			c1.349-4.984,2.413-8.795-2.572-10.29c1.051-1.221,2.036,0.707,3.087-0.514c0-2.058,0-4.116,0-6.173
			c-1.621-0.249-1.165,1.579-3.087,1.029c-1.089-3.198-1.864-6.71-4.63-8.231c-0.582-2.025,1.552-3.575-0.515-4.116
			c-2.494,0.422-1.232,4.599-4.63,4.116c-0.418-4.191,2.122-5.423,1.543-9.774c-1.466,0.935-1.906,2.895-4.63,2.572
			c-1.677-2.053,1.007-3.182,1.029-5.145c-0.436-1.214-1.267,1.417-3.086,0.514c2.346-4.182,2.669-12.51,1.543-18.52
			c-0.083-0.603-0.938-0.434-1.543-0.515c-2.248-6.598,2.932-14.955-1.029-20.064c1.651-2.019,0.046-5.231,1.029-7.202
			c-0.225-0.764-0.659,0.203-1.543,0C112.966,287.514,113.971,276.175,115.775,270.089z M195.515,639.982
			c0.844-2.603,1.216-0.667,2.572-3.087c4.472,0.305,9.855,1.637,12.347,1.029c-0.233-0.603,0.308-4.817,3.086-4.116
			c-1.286-3.956-2.635-9.679-3.086-12.861c-11.561-27.71-17.846-60.694-35.498-82.312c-0.218,8.077-0.571,15.199,0,22.121
			c2.187,26.517,3.709,56.019,14.919,74.597c1.867-0.627,4.261,0.828,2.572,2.058c0.001-0.286-0.417-0.584-0.515,0
			C193.359,638.023,193.844,639.595,195.515,639.982z"/>
		<path fill-rule="evenodd" clip-rule="evenodd" fill="#FFFFFF" d="M191.914,637.41c0.098-0.584,0.516-0.286,0.515,0
			c1.689-1.229-0.706-2.685-2.572-2.058c-11.21-18.578-12.733-48.08-14.919-74.597c-0.571-6.922-0.218-14.044,0-22.121
			c17.652,21.618,23.937,54.603,35.498,82.312c0.451,3.183,1.8,8.905,3.086,12.861c-2.779-0.701-3.319,3.514-3.086,4.116
			c-2.492,0.607-7.875-0.725-12.347-1.029c-1.356,2.42-1.728,0.484-2.572,3.087C193.844,639.595,193.359,638.023,191.914,637.41z"/>
	</g>
</g>
</svg>
